<?xml version="1.0" encoding="utf-8"?>
<!-- Generator: Adobe Illustrator 26.0.3, SVG Export Plug-In . SVG Version: 6.00 Build 0)  -->
<svg version="1.1" id="Layer_1" xmlns="http://www.w3.org/2000/svg" xmlns:xlink="http://www.w3.org/1999/xlink" x="0px" y="0px"
	 viewBox="0 0 358.6 80.2" style="enable-background:new 0 0 358.6 80.2;" xml:space="preserve">
<style type="text/css">
	.st0{fill:#010101;}
	.st1{fill:#040403;}
	.st2{fill:#050404;}
	.st3{fill:#13120D;}
	.st4{fill:#131311;}
	.st5{fill:#11100C;}
	.st6{fill:#100E09;}
	.st7{fill:#100E0B;}
	.st8{fill:#0F0E0A;}
	.st9{fill:#12110D;}
	.st10{fill:#0C0B09;}
	.st11{fill:#100F0C;}
	.st12{fill:#100F0B;}
	.st13{fill:#191713;}
	.st14{fill:#0E0D09;}
	.st15{fill:#171613;}
	.st16{fill:#151412;}
	.st17{fill:#17140C;}
	.st18{fill:#1B1A18;}
	.st19{fill:#191815;}
	.st20{fill:#1B1913;}
	.st21{fill:#FEDC72;}
	.st22{fill:#F58F00;}
	.st23{fill:#171004;}
	.st24{fill:#170F03;}
	.st25{fill:#130F06;}
	.st26{fill:#F9CD41;}
	.st27{fill:#FACE41;}
	.st28{fill:#F5CA40;}
	.st29{fill:#FCCF41;}
	.st30{fill:#B4942E;}
	.st31{fill:#FBCF41;}
	.st32{fill:#1A170F;}
	.st33{fill:#F8CC40;}
</style>
<g id="Layer_1-2">
	<g>
		<path class="st0" d="M46.6,43.7C57.2,40.3,68,38,79,36.1c16.5-2.9,33.1-4.2,49.8-4.2c17,0.1,34,1.6,50.8,4.6
			c0.6,0.1,1.2,0.3,1.9,0.1c21.2-3.9,42.6-5.3,64.1-4.4c23.6,0.9,46.6,4.8,69.3,11.4c1.4,0.4,2.7,0.9,3.4,2.3
			c0.2,0.3,0.1,0.5-0.2,0.7c-2.7-0.6-5.2-1.9-7.9-2.6c-16.5-4.5-33.3-7.5-50.4-9.2c-12.7-1.2-25.4-1.4-38.1-0.9
			c-10.1,0.3-20.2,1.3-30.3,2.9c-2.6,0.4-2.5,0.7-2.4,3.3c0.2,3.3,2.2,5.7,3.7,8.4c0,0.4-0.1,0.8-0.4,1c-0.9-0.2-1.8,0-2.9,0.6
			c-2.7,1.5-6,0-6.7-3.1c-0.5-2.3-0.8-4.5-1.4-6.8c0-0.2-0.1-0.3-0.5-0.5c-1,0.6-1.7,1.7-2.5,2.6c-0.8,0.9-1.4,2-2.8,1.9
			c-0.4-0.2-0.5-0.6-0.5-1c0.4-1.4,1.5-2.3,2.3-3.3c1.2-1.6,1.2-1.8-0.8-2.2c-5.9-1.1-11.8-1.8-17.8-2.5
			c-14.4-1.8-28.9-1.9-43.3-1.4c-16.8,0.6-33.4,2.9-49.8,6.6c-5.3,1.3-10.5,2.6-15.6,4c-0.8,0.2-1.7,0.4-2.6,0.2
			C46.9,44.4,46.5,44.3,46.6,43.7z"/>
		<path class="st1" d="M193.9,55.6c-9.4,4.2-18.7,3.6-27.7-1.1c-0.7-0.3-1.4-0.3-2.1-0.3c-19.6-0.2-39.3-0.4-58.9,0.1
			C78,55,50.8,56.2,23.7,58.4c-0.4,0-0.8,0-1.5,0c1.5-1.4,3.2-1.8,4.7-2.7c0.4,0.1,0.8,0.3,1.1,0.5c2.6,0.2,5.1-0.3,7.6-0.4
			c11.3-0.8,22.6-1.4,34-1.9c8.9-0.4,17.9-0.6,26.8-1c8.6-0.4,17.3-0.3,25.9-0.3c4.9,0,9.7-0.7,14.6-0.6c8.1,0.2,16.3,0.7,24.4,0.6
			c2.9,0,5.3-0.5,7-3.2c0.5-0.7,1.2-1.3,2-1.6c0.4-0.1,0.8,0,1.1,0.3c0.3,1.5-0.9,2.3-1.7,3.2c-1.7,2.3-1.8,2.4,1,3.5
			c6.7,2.5,13.5,2.4,20.3,0.3c0.9-0.3,1.7-0.8,2.8-0.5C194.2,54.9,194.2,55.3,193.9,55.6z"/>
		<path class="st2" d="M193.9,55.6c0-0.3,0-0.6,0-0.9c0.6-0.9,1-1.9,1.7-2.7c0.3-0.1,0.5-0.1,0.8-0.1c1.6,0.4,3.3,0.5,5,0.5
			c13.7,0,27.3,0.1,41,0c10.6-0.1,21.1,0.3,31.6,0.6c13.4,0.4,26.8,1.1,40.2,1.9c5.7,0.4,11.5,0.5,17.2,1.3c0.4,0.1,0.8,0,1.1-0.2
			c0.2-0.2,0.4-0.4,0.6-0.5c2.3,0.2,4,1.7,6,2.9c-2.3-0.2-4.6-0.3-6.9-0.5c-19.9-1.6-39.8-2.5-59.8-3.2c-21.6-0.8-43.3-0.8-64.9-0.7
			c-2.2,0-4.5,0.1-6.7,0C198.4,54.1,196.1,54.4,193.9,55.6z"/>
		<path class="st3" d="M121.9,3c2.2,2.4,4.7,3,8,1.6c-1.8,3-2,5.7,0.7,8c-0.7,0.6-1.3,0.5-1.8,0.3c-2-0.5-3.6-0.4-4.8,1.6
			c-1,1.6-1.9,0.9-1.9-0.5c-0.1-2.3-1.5-3-3.4-3.5c-0.4-0.1-1-0.4-1.1-0.7c-0.2-0.8,0.7-0.7,1-1.1c0.9-1,3.1-0.9,2.9-3
			C122,4.9,121.4,3.8,121.9,3z"/>
		<path class="st4" d="M305.6,26c-1.2,0-1.9,0.2-2.5,0c-2.1-0.8-3.4,0.3-4.6,1.7c-0.3,0.4-1.3,1.6-1.4,0.1c-0.2-3.2-2.5-4-5.7-5.2
			c3.9-1.2,5.5-3.3,4.9-6.6c0.9-0.4,1.4,0.2,1.6,0.6c1.3,2.2,3.1,2.1,5.1,1.3c0.8-0.3,1.9-0.5,1.1,0.9
			C302.4,21.5,303.2,23.6,305.6,26z"/>
		<path class="st5" d="M212.7,3.3c1.8,0.9,3.3-0.6,5.5-0.4c-2,2.8-2.1,5.4,0.3,7.7c-0.5,0.7-1,0.5-1.4,0.4c-2.4-0.6-4.3,0-5.5,2.3
			c-0.5,1-1.4,0.7-1.3-0.2c0.2-3.5-2.4-4.2-5-5.1c1.1-1.4,2.7-1.7,3.9-2.7c0.2-0.2,0.4-0.2,0.6,0C210,5.5,210,5.7,210,6
			c-2.5,2.5,1.5,2.8,1.2,4.9c1.5-0.9,2.4-2.2,3.9-1.7c0.2-0.5,0-0.7,0-0.9c-0.1-1.7-0.2-3.5-2.6-3.4c-0.2,0-0.4-0.5-0.4-0.8
			C212.1,3.7,212.3,3.4,212.7,3.3z"/>
		<path class="st6" d="M165.6,5.7c0.2-0.3,0.4-0.6,0.6-0.9c0.4-1.1-0.1-2.3,0.4-3.4c0.2-0.7,0.5-0.4,0.8-0.1c1.4,2.2,3.2,3,5.7,1.7
			c0.5-0.3,1.9-0.5,1.1,0.7c-1.6,2.7-1.1,4.9,1.2,7.2c-3.4-0.7-6-0.1-7.7,3.5c-1-2.5-0.6-5.2-3.5-5.8c-0.1-0.4,0.1-0.6,0.5-0.8
			c2.2-0.4,3.1,1,3.8,2.8c0.9-0.7,1.5-1.6,2.7-1.4c0.3-0.1,0.9,0.4,0.9-0.4c-0.2-0.4-0.5-0.8-0.4-1.1c0.9-2.9-1.7-2.5-3.1-3.3
			c-0.6-0.3-0.8-0.1-1,0.5c-0.2,0.8-0.6,1.5-1.6,1.5C165.6,6.3,165.4,6.1,165.6,5.7z"/>
		<path class="st7" d="M333.2,43.2c-0.7,0.9-1.4,1.9-2.6,3.3c-0.1-3.9-1.6-6.2-5.4-6.8c3.2-1.4,5.3-3.3,4.2-6.9
			c1.1-0.1,1.4,0.5,1.8,1c1.2,1.3,2.4,2.3,4.4,1.3c0.5-0.2,1.4-0.4,1.7,0.3c0.2,0.6-0.1,1.4-0.9,1.7c-0.2-0.1-0.4-0.1-0.6-0.2
			c-1.5-0.2-3.2,0.6-4.6-1.2c-0.2,1.8-2.2,3.4-1.7,3.8c1.1,0.9,1.3,2.8,3,3.1C332.9,42.7,333.1,42.9,333.2,43.2z"/>
		<path class="st8" d="M259,14.5c-1.3-0.1-2.6-0.1-3.2,1.4c-0.5,0-0.6-0.3-0.7-0.6c0.3-1.2,0.9-2.2,2.4-2.1c0.5-0.1,1.1,0.6,1.4-0.3
			c-0.1-0.2-0.2-0.3-0.2-0.4c-0.2-2.5-1.6-3.9-4.1-4.3c-0.4,0.9-0.2,2.6-2.1,2.4c-0.3-0.1-0.6-0.3-0.5-0.8c1.6-1.4,0.5-3.3,1.3-5.3
			c2.1,2.5,4.6,3.8,7.6,2c0.2,0.3,0.2,0.4,0.2,0.4c-1.8,2.6-1.4,5.1,0,7.6C260.4,14.8,259.7,14.7,259,14.5z"/>
		<path class="st9" d="M80.3,20.2c-0.6,0.6-1.6,2.5-2,0.5c-0.6-3-2.5-3.9-5.6-4.9c3.6-1.4,5.6-3.4,4.6-7c2.1,0.5,2.8,2.9,4.8,2.7
			c0,1-0.9,0.9-1.5,1.1c-0.7-0.1-1.7-0.9-1.9,0.7c-0.1,1-1.2,1.4-1.9,2.3c2,0.5,1.8,2.6,2.9,3.7C80,19.6,80.2,19.9,80.3,20.2z"/>
		<path class="st10" d="M44.4,25c-1-0.3-1.6,0.2-3.1-0.4c3.4-1.3,5.1-4,4.4-7.9c2.4,2.5,4.9,3.7,8.1,1.7c0,1.6-0.8,2.3-1.2,3.2
			c-0.4,0.2-0.6,0-0.9-0.2c-1.4-0.6-3.2,0-4.5-1.6c-0.3,1.3-0.4,2.6-1.6,3.2c-1.1,0.6-0.1,1.2,0,1.7C45.3,25.3,44.9,25.3,44.4,25z"
			/>
		<path class="st11" d="M80.3,20.2c-0.2-0.2-0.4-0.4-0.6-0.6c-0.1-1.2,0.7-1.9,1.6-2.1c2.7-0.5,1.1-2.6,1.4-3.8s-1.2-0.4-1.7-0.9
			c-0.1-0.1-0.2-0.2-0.3-0.3c0.5-0.3,1-0.5,1.4-0.8c0.1,0,0.2-0.1,0.2-0.1c1,0.1,2.2-1.2,2.9-0.4c0.6,0.7-0.4,1.8-0.8,2.7
			c-0.6,1.2,0.1,1.9,0.6,2.8c0.5,0.7,0.9,1.5,1.4,2.4C84.3,19.6,81.8,17.7,80.3,20.2z"/>
		<path class="st12" d="M44.4,25c0.3-0.1,0.7-0.3,1-0.4c0.2-0.1,0.6-0.2,0.7,0c1.7,2.9,3.7,0.3,5.5,0.3c0.1,0,0.2-0.3,0.2-0.4
			c0.2-0.3,0.4-0.5,0.8-0.4c0.6,0.9,1.2,1.8,2.2,3.2c-3.6-0.9-6.4-0.5-7.8,3.2C45.7,28.5,46.7,26,44.4,25z"/>
		<path class="st13" d="M333.1,55.6c0,0.2,0,0.4,0,0.6c-0.9,0.4-1.5-0.2-2.2-0.6c-3.9-2.3-7.5-5-11.4-7.3c-0.6-0.4-1.3-0.7-1.3-1.6
			c0-0.2,0-0.4,0.1-0.7c3.7,1.6,7,4,10.4,6.3C330.1,53.3,331.8,54.1,333.1,55.6z"/>
		<path class="st5" d="M252,9.6c0.2,0.2,0.4,0.4,0.6,0.5c0.2,0.4-0.7,1-0.1,1.2c1.8,0.7,2,2.5,2.7,3.9c0.2,0.2,0.3,0.4,0.5,0.6
			c-0.2,0.9-0.9,1.4-1.9,2.2c0.1-3.7-1.6-5.7-5.1-6.7C249.9,10.8,250.9,10.2,252,9.6z"/>
		<path class="st13" d="M27.5,56.2c-0.2-0.1-0.4-0.3-0.6-0.4c4.2-2.6,8.3-5.2,12.5-7.8c0.2,0.2,0.2,0.4,0.3,0.6
			c-1.1,2.2-3.6,2.8-5.3,4.3c-1.5,1.3-3.5,2-5.1,3.1C28.7,56.4,28.1,56.7,27.5,56.2z"/>
		<path class="st14" d="M333.2,43.2c-0.2-0.2-0.4-0.4-0.6-0.5c-0.2-1.9,2.4-0.9,2.4-2.2c0-1.2-0.5-2.3,0.2-3.4
			c0.3-0.4,0.5-0.8,1.1-0.8c0,0.2,0.1,0.5,0.1,0.7c-1.2,2.4,1.2,3.8,2,5.7C336.6,43.4,334.8,41.9,333.2,43.2z"/>
		<path class="st15" d="M39.4,48.6c0-0.2,0-0.4-0.1-0.6c2.4-1.5,4.4-3.5,7.2-4.2c0.2,0.2,0.4,0.3,0.6,0.5c-1.9,1.9-4.2,3.1-6.5,4.5
			C40.4,49,39.9,48.9,39.4,48.6z"/>
		<path d="M212.7,3.3c-0.2,0.2-0.3,0.4-0.5,0.6c-1.5-0.2-1.2,1.8-2.4,2c0-0.2,0-0.4,0-0.5c-0.4-0.8-0.3-1.7-0.1-2.5
			c0-0.5,0-1.1,0-1.9C210.8,1.8,211.8,2.6,212.7,3.3z"/>
		<path class="st16" d="M164.8,8.1c-0.2,0.2-0.4,0.4-0.6,0.6c-0.6-0.2-1.3-0.4-2.1-0.7c1.1-1.1,2.4-1.6,3.5-2.3
			c0.2,0.2,0.4,0.4,0.6,0.6C166.2,7.3,165.3,7.5,164.8,8.1z"/>
		<path class="st17" d="M52.7,24.1c-0.2,0.2-0.4,0.4-0.5,0.6c-1.9-1.2-1.9-2.1,0-3.7c0.2,0.2,0.4,0.4,0.6,0.6
			C52.4,22.5,52.1,23.3,52.7,24.1z"/>
		<path class="st18" d="M121.9,3c-0.1,1,0.3,2-0.4,2.8c0-0.9,0.1-1.8,0.1-2.8c0-0.1,0-0.1,0.1-0.2C121.8,2.9,121.9,2.9,121.9,3z"/>
		<path class="st16" d="M166.5,1.4c-0.1,1.1,0.4,2.3-0.4,3.4C166.1,3.7,166.1,2.5,166.5,1.4z"/>
		<path class="st19" d="M259,14.5c0.7,0,1.4,0,2.1-0.1c0.1,0.2,1.1,0.1,0.3,0.4C260.8,15.1,259.8,14.6,259,14.5z"/>
		<path class="st20" d="M209.7,2.8c0,0.8,0,1.7,0.1,2.5c-0.2,0-0.4,0-0.5,0C209.4,4.5,209.6,3.7,209.7,2.8z"/>
		<path class="st21" d="M39.4,48.6c1.2,0.1,2.1-0.8,2.9-1.4c1.5-1.2,3.1-2.2,4.9-2.9c6.2-1.5,12.4-3.1,18.6-4.5
			c18.7-4.2,37.7-6.4,56.9-6.7c18.9-0.4,37.6,1.2,56.2,4.5c0.3,0.1,0.6,0.2,1.1,0.3c-1.3,2.4-3.5,3.7-4.9,5.8
			c-0.3,1.2-1.3,1.9-2.1,2.7c-0.7,0.6-1.3,1.4-2.2,1.7c-0.4,0.3-0.8,0.6-1,1c-2.5,3.9-6,4.5-10.4,4.4c-18-0.6-36.1-0.4-54.1,0
			c-25.1,0.6-50.2,1.6-75.3,3.6c-0.8,0.1-2.3,1.2-2.6-0.8c3.6-1.5,6.8-3.8,10-6C38.1,49.6,39.1,49.5,39.4,48.6z"/>
		<path class="st21" d="M318.2,46.6c4.9,3.2,9.7,6.6,14.9,9.5c0.2,0.2,0.7,0.4,0.7,0.6c0,0.6-0.6,0.4-0.9,0.3
			c-3-0.2-6.1-0.3-9.1-0.6c-14.9-1.1-29.8-1.8-44.7-2.4c-23-0.9-46-1-69-0.9c-3.5,0-7,0-10.5,0.1c-1.6,0.1-3-0.1-4.2-1.1
			c-1.7-0.5-2.3-1.9-2.8-3.4c-3.4-2.7-4-6.6-4.5-10.6c-0.2-1.5,0.3-1.7,1.5-1.9c16.9-2.7,33.8-3.7,50.9-3.3
			c24.6,0.5,48.8,4.3,72.5,11C314.8,44.7,316.5,45.5,318.2,46.6z"/>
		<path class="st22" d="M195.3,52.9c0.8,1.5-1,1.1-1.4,1.8c-8.4,3.5-16.7,3.7-25.1,0c-1.6-0.7-2.2-1.2-0.6-2.7
			c1.2-1,2.1-2.3,3.2-3.5c0.2-1,1-1.6,1.6-2.2c0.8-0.8,1.5-1.8,2.6-2.2c1.9-1.8,3.8-3.6,5.9-5.5c0.6,3,1.2,6.1,1.9,9.1
			c0.2,0.7-0.1,2,1.2,2c1.6,0,3.4,0.4,4.9-0.3c0.3-0.1,0.1-1.3,0.1-2.1c0.8,0.8,1.5,1.4,2.3,2.1C193.5,50.2,194.4,51.5,195.3,52.9z"
			/>
		<path class="st23" d="M195.3,52.9c-1.2-1-2.3-2.2-3.3-3.5c0.2-0.2,0.4-0.4,0.5-0.6c1.3,0.8,1.8,2.3,2.8,3.4
			C195.3,52.4,195.3,52.7,195.3,52.9z"/>
		<path class="st24" d="M175.7,44.1c-0.6,1-1.5,1.7-2.3,2.5c-0.3-0.1-0.5-0.3-0.6-0.6c0.6-1,1.4-1.8,2.4-2.5
			C175.3,43.8,175.5,44,175.7,44.1z"/>
		<path class="st25" d="M172.8,46.1c0.2,0.2,0.4,0.4,0.6,0.6c-0.6,0.6-1.3,1.3-1.9,1.9c-0.2-0.2-0.3-0.4-0.5-0.6
			C171.3,47.1,172,46.6,172.8,46.1z"/>
		<path class="st26" d="M122.6,4.5c1.6,2,3.4,2.5,5.7,1.4c-0.8,1.9-1.6,3.4-0.3,5c0.3,0.3,0.2,1.4-0.6,1c-2-1.1-2.8,0.6-4.1,1.7
			c-0.7-1.6-1.2-3.3-3.1-3.6c-1.1-0.2-0.4-1.1-0.1-1.2C122.3,8.4,122.5,6.7,122.6,4.5z"/>
		<path class="st27" d="M293.7,22.6c2.7-1,3.9-2.3,3.5-4.9c1.6,1.6,3.3,2.4,5.8,0.9c-0.8,2.1-1.7,3.5-0.4,5c0.6,0.7,0.1,1.5-0.9,1.2
			c-1.8-0.5-2.8,0.4-3.7,2.1C297.5,24.8,296.7,23.2,293.7,22.6z"/>
		<path class="st28" d="M209.8,5.9c1.2-0.7,0.2-1.9,0.6-2.7c0.9-0.4,1.1,0.6,1.8,0.8c0.9,1.9,2.4,0.1,3.9,0.7
			c-1.1,1.8-0.9,3.6,0.5,5.4c-2.6-1-4,0.6-5.6,2.2c0.6-3-1.7-3.5-3.4-4.5C208,6.6,209.5,7.1,209.8,5.9z"/>
		<path class="st29" d="M164.8,8.1c-0.5-1.4,1.2-1,1.4-1.8c1.3-0.7,0.7-2.1,1.1-3.4c1.6,1.2,3,2.8,5.4,1.1c-0.7,2-1.4,3.6,0.1,5
			c-0.1,1.2-1,0.7-1.6,0.6c-1.7-0.4-2,1.6-3.3,2.1C167.6,10,167.2,8.2,164.8,8.1z"/>
		<path class="st30" d="M171.3,9.7c0.5-0.2,1.2,0.1,1.6-0.6c0.3,0.2,0.5,0.5,0.3,0.7C172.5,10.3,171.9,10.1,171.3,9.7z"/>
		<path class="st26" d="M336.3,36.3c-1.5,1.7-1.6,3.4,0.2,5c-1.3,1-3.2-0.6-3.9,1.3c-0.4,0.3-0.7,0.6-1.3,1.1
			c-0.4-2-1.1-3.8-3.6-4.1c2-1,3.2-2.4,3-4.9C332.2,37.1,334.4,36.1,336.3,36.3z"/>
		<path class="st31" d="M255.3,15.3c-0.3,0.1-0.8,0.4-0.8,0c-0.1-2.1-1.3-3.4-3.7-3.7c0.8-0.6,1.3-1,1.8-1.4
			c1.9-0.5,0.8-2.3,1.5-3.5c1.3,0.6,2.2,2.4,4.2,1.5c0.7-0.3,1.1,0.4,0.7,1c-1.2,1.6-0.2,2.7,0.7,3.8c-0.4,1.2-1.3,0.6-2,0.5
			C256.1,13,256,14.6,255.3,15.3z"/>
		<path class="st32" d="M257.7,13.5c0.6-0.3,1.6,0.5,2-0.5C259.7,14.2,259.4,14.2,257.7,13.5z"/>
		<path class="st33" d="M80.7,12.4c1,0.3,2,0.1,3.3-0.3c-1.1,2-1.3,3.8,0.5,5.7c-2.2-0.1-3.9-0.2-4.8,1.8c-0.4,0.1-0.8,0.3-0.9-0.3
			c-0.3-1.9-1.3-3.2-4-3.5c2.7-1.1,4.1-2.3,3.4-4.7C79.5,11.1,79.7,12.4,80.7,12.4z"/>
		<path class="st31" d="M52.1,21c-0.9,1.2-1.4,2.4,0,3.7c-0.3,0.4,1.1,1.5-0.3,1.2c-2.1-0.5-3.2,0.6-4.3,2c-1-1-0.2-3-2-3.3
			c-0.5-0.3-1.1-0.6-1.9-1c2.3-0.8,3.3-2.3,2.8-5c1.7,1.7,3.2,2.7,5.1,1.7C52.1,20,52.1,20.6,52.1,21z"/>
		<path class="st10" d="M18.4,42c-1-0.3-1.9-0.7-3.4-1.2c3.4-1.3,5.4-3.2,4.7-7.1c2.4,2.5,4.9,3.7,8.1,1.7c0,1.6-0.8,2.3-1.2,3.2
			c-0.4,0.2-0.6,0-0.9-0.2c-1.4-0.6-3.2,0-4.5-1.6c-0.3,1.3-0.4,2.6-1.6,3.2c-1.1,0.6-0.1,1.2,0,1.7C19.3,42.3,18.9,42.3,18.4,42z"
			/>
		<path class="st12" d="M18.4,42c0.3-0.1,0.7-0.3,1-0.4c0.2-0.1,0.6-0.2,0.7,0c1.7,2.9,3.7,0.3,5.5,0.3c0.1,0,0.2-0.3,0.2-0.4
			c0.2-0.3,0.4-0.5,0.8-0.4c0.6,0.9,1.2,1.8,2.2,3.2c-3.6-0.9-6.1-1-7.5,2.7C20,45,20.7,43,18.4,42z"/>
		<path class="st17" d="M26.6,41c-0.2,0.2-0.4,0.4-0.5,0.6c-1.9-1.2-1.9-2.1,0-3.7c0.2,0.2,0.4,0.4,0.6,0.6
			C26.4,39.4,26.1,40.2,26.6,41z"/>
		<path class="st31" d="M26.1,38c-0.9,1.2-1.4,2.4,0,3.7c-0.3,0.4,1.1,1.5-0.3,1.2c-2.1-0.5-3.2,0.6-4.3,2c-1-1-0.2-3-2-3.3
			c-0.5-0.3-1.1-0.6-1.9-1c2.3-0.8,3.3-2.3,2.8-5c1.7,1.7,3.2,2.7,5.1,1.7C26.1,37,26.1,37.6,26.1,38z"/>
	</g>
</g>
</svg>
